Tron 1

Plot:


A hacker is literally abducted into the world of a computer and forced to participate in gladiatorial games where his only chance of escape is with the help of a heroic security program.




Video

Codec ID : XVID
Codec ID/Hint : XviD
Duration : 2h 5mn
Bit rate : 666 Kbps
Width : 560 pixels
Height : 288 pixels
Display aspect ratio : 1.944
Frame rate : 23.976 fps
Color space : YUV
Chroma subsampling : 4:2:0
Bit depth : 8 bits
Scan type : Progressive
Bits/(Pixel*Frame) : 0.172
Stream size : 596 MiB (85%)
Writing library : XviD 57

Audio
ID : 1
Format : MPEG Audio
Format version : Version 1
Format profile : Layer 3
Mode : Joint stereo
Mode extension : MS Stereo
Codec ID : 55
Codec ID/Hint : MP3
Duration : 2h 5mn
Bit rate mode : Variable
Bit rate : 105 Kbps
Nominal bit rate : 112 Kbps
Channel(s) : 2 channels

Trailer

IMDB 
http://www.imdb.com/title/tt0084827/




Screens:
 
http://leetleech.org/images/68996141060142683862.jpg



----------------------------------------------------------------------------------


================================== 
http://thepiratebay.org/user/hiest
==================================


----------------------------------------------------------------------------------


Tron 2

Plot:

The son of a virtual world designer goes looking for his father and ends up inside the digital world that his father designed. He meets his father's creation turned bad and a unique ally who was born inside the digital domain of The Grid.



Video

Codec ID : XVID
Codec ID/Hint : XviD
Duration : 1h 35mn
Bit rate : 907 Kbps
Width : 704 pixels
Height : 320 pixels
Display aspect ratio : 2.2:1
Frame rate : 23.976 fps
Color space : YUV
Chroma subsampling : 4:2:0
Bit depth : 8 bits
Scan type : Progressive
Bits/(Pixel*Frame) : 0.168
Stream size : 621 MiB (89%)
Writing library : XviD 57

Audio
ID : 1
Format : MPEG Audio
Format version : Version 1
Format profile : Layer 3
Mode : Joint stereo
Mode extension : MS Stereo
Codec ID : 55
Codec ID/Hint : MP3
Duration : 1h 35mn
Bit rate mode : Variable
Bit rate : 104 Kbps
Nominal bit rate : 112 Kbps
Channel(s) : 2 channels

Trailer

IMDB 
http://www.imdb.com/title/tt1104001/



Screens:
 
http://leetleech.org/images/59529377873479427973.jpg

-----------------------------------------------------------------------------------


